<?xml version="1.0" encoding="UTF-8"?><svg id="chastity_flag" xmlns="http://www.w3.org/2000/svg" xmlns:xlink="http://www.w3.org/1999/xlink" viewBox="0 0 216 144"><defs><clipPath id="clippath"><rect id="bleed_clip_mask" width="216" height="144" style="fill:none;"/></clipPath></defs><g style="clip-path:url(#clippath);"><g id="stripes"><rect id="blue_stripe_lower" x="-9" y="101.53" width="234" height="51.47" style="fill:#262a82;"/><rect id="light_blue_stripe_lower" x="-9" y="72.09" width="234" height="43.11" style="fill:#58b6e7;"/><rect id="white_stripe" x="-9" y="43.68" width="234" height="42.81" style="fill:#fff;"/><rect id="light_blue_stripe_upper" x="-9" y="9.9" width="234" height="47.74" style="fill:#58b6e7;"/><rect id="blue_stripe_upper" x="-9" y="-9" width="234" height="37.8" style="fill:#262a82;"/></g><path id="lock" d="M83.61,82.66c0-3.86-.02-7.72,0-11.57,.01-2.17,.46-2.72,2.56-3.34,.26-.08,.51-.16,.76-.23,.74-.21,1.08-.68,1.08-1.46-.03-2.77-.02-5.53-.05-8.3-.06-5.18,1.02-9.98,4.49-14.03,2.32-2.71,5.25-4.43,8.63-5.49,6.23-1.97,11.98-.97,17.14,2.91,4.19,3.15,6.7,7.41,7.14,12.68,.24,2.8,.12,5.63,.16,8.45,.02,1.3,.05,2.61,.06,3.91,0,.71,.33,1.14,1.01,1.34,.59,.17,1.17,.37,1.74,.59,1.05,.4,1.64,1.2,1.72,2.3,.08,1.27,.05,2.55,.06,3.82,.03,6.44,.05,12.88,.08,19.31,0,.24,0,.48,0,.72-.07,1.94-.64,2.8-2.49,3.45-1.83,.64-3.66,1.34-5.55,1.74-3.48,.75-6.97,1.56-10.5,1.87-7.33,.66-14.55-.12-21.59-2.38-1.27-.41-2.55-.75-3.81-1.17-2.09-.7-2.63-1.41-2.64-3.62-.03-3.83,0-7.66,0-11.49h.04Zm35.69-22.82h-.06c0-1.06,.02-2.13,0-3.19-.1-5.22-2.08-9.33-6.97-11.71-6.59-3.21-14.07-.45-16.88,6.31-.52,1.26-.89,2.66-.95,4.01-.14,3.08-.04,6.16-.05,9.25,0,.56,.26,.76,.8,.66,.73-.13,1.48-.2,2.21-.34,4.66-.88,9.35-1.1,14.06-.56,2.3,.26,4.58,.64,6.87,.99,.67,.1,.99-.06,.97-.8-.04-1.54-.01-3.09-.01-4.63Z"/></g></svg>