<?xml version="1.0" encoding="utf-8"?>
<!-- Generator: Adobe Illustrator 27.7.0, SVG Export Plug-In . SVG Version: 6.00 Build 0)  -->
<svg version="1.1" id="flag" xmlns="http://www.w3.org/2000/svg" xmlns:xlink="http://www.w3.org/1999/xlink" x="0px" y="0px"
	 viewBox="0 0 216 144" style="enable-background:new 0 0 216 144;" xml:space="preserve">
<style type="text/css">
	.st0{clip-path:url(#bleed_clip_mask_00000064331790399247504100000013516709092217729428_);}
	.st1{fill:#542E8E;}
	.st2{fill:#263287;}
	.st3{fill:#00853E;}
	.st4{fill:#FFF21F;}
	.st5{fill:#F58021;}
	.st6{fill:#D92632;}
	.st7{fill:#935F22;}
	.st8{fill:#00BCDA;}
	.st9{fill:#F6A0B3;}
	.st10{fill:#FFFFFF;}
</style>
<g id="progress__x28_intersex_x29__pride_flag">
	<defs>
		<rect id="bleed_clip_mask" width="216" height="144"/>
	</defs>
	<clipPath id="bleed_clip_mask_00000046326041751290818630000004517762254067139210_">
		<use xlink:href="#bleed_clip_mask"  style="overflow:visible;"/>
	</clipPath>
	<g id="stripes" style="clip-path:url(#bleed_clip_mask_00000046326041751290818630000004517762254067139210_);">
		<rect id="violet_stripe" x="-9" y="108" class="st1" width="234" height="45"/>
		<rect id="indigo_stripe" x="-9" y="84" class="st2" width="234" height="36"/>
		<rect id="green_stripe" x="-9" y="60" class="st3" width="234" height="36"/>
		<rect id="yellow_stripe" x="-9" y="36" class="st4" width="234" height="36"/>
		<rect id="orange_stripe" x="-9" y="7.5" class="st5" width="234" height="40.5"/>
		<rect id="red_stripe" x="-9" y="-9" class="st6" width="234" height="33"/>
	</g>
	<g id="chevrons" style="clip-path:url(#bleed_clip_mask_00000046326041751290818630000004517762254067139210_);">
		<polygon points="39.1,-9 -9,-9 -9,153 40.2,153 126.1,72.5 		"/>
		<polygon class="st7" points="23.8,-9 -9,-9 -9,153 24.9,153 110.8,72.5 		"/>
		<polygon class="st8" points="8.6,-9 -9,-9 -9,153 9.6,153 95.5,72.5 		"/>
		<polygon class="st9" points="-6.7,-9 -9,-9 -9,153 -5.6,153 80.3,72.5 		"/>
		<polygon id="white_chevron" class="st10" points="-9,141.8 65,72.5 -9,3.2 		"/>
		<polygon id="yellow_chevron" class="st4" points="-9,127.5 49.7,72.5 -9,17.5 		"/>
		<path id="ring" class="st1" d="M18.7,58.3c-7.8,0-14.2,6.4-14.2,14.2c0,7.8,6.4,14.2,14.2,14.2s14.2-6.4,14.2-14.2
			C32.9,64.7,26.5,58.3,18.7,58.3z M18.7,82.5c-5.5,0-10-4.5-10-10s4.5-10,10-10s10,4.5,10,10S24.2,82.5,18.7,82.5z"/>
	</g>
</g>
</svg>
